<svg width="37" height="37" viewBox="0 0 37 37" fill="none" xmlns="http://www.w3.org/2000/svg">
<path fill-rule="evenodd" clip-rule="evenodd" d="M25.2567 21.5832H13.5123L10.9886 12.3332H29.8817L25.2567 21.5832ZM32.5026 10.7114C31.9368 9.79563 30.9563 9.24988 29.8803 9.24988H10.1469L9.19572 5.76109C9.01226 5.09046 8.4033 4.62488 7.70801 4.62488H4.62467C3.77213 4.62488 3.08301 5.31554 3.08301 6.16654C3.08301 7.01754 3.77213 7.70821 4.62467 7.70821H6.53017L10.8453 23.5303C11.0288 24.201 11.6377 24.6665 12.333 24.6665H26.208C26.7923 24.6665 27.3257 24.3366 27.5878 23.814L32.6383 13.7115C33.1208 12.7479 33.0684 11.6271 32.5026 10.7114ZM11.5625 27.7499C10.286 27.7499 9.25 28.7844 9.25 30.0624C9.25 31.3405 10.286 32.3749 11.5625 32.3749C12.839 32.3749 13.875 31.3405 13.875 30.0624C13.875 28.7844 12.839 27.7499 11.5625 27.7499ZM24.6666 30.0624C24.6666 28.7844 25.7026 27.7499 26.9791 27.7499C28.2556 27.7499 29.2916 28.7844 29.2916 30.0624C29.2916 31.3405 28.2556 32.3749 26.9791 32.3749C25.7026 32.3749 24.6666 31.3405 24.6666 30.0624Z" fill="black"/>
<mask id="mask0" style="mask-type:alpha" maskUnits="userSpaceOnUse" x="3" y="4" width="30" height="29">
<path fill-rule="evenodd" clip-rule="evenodd" d="M25.2567 21.5832H13.5123L10.9886 12.3332H29.8817L25.2567 21.5832ZM32.5026 10.7114C31.9368 9.79563 30.9563 9.24988 29.8803 9.24988H10.1469L9.19572 5.76109C9.01226 5.09046 8.4033 4.62488 7.70801 4.62488H4.62467C3.77213 4.62488 3.08301 5.31554 3.08301 6.16654C3.08301 7.01754 3.77213 7.70821 4.62467 7.70821H6.53017L10.8453 23.5303C11.0288 24.201 11.6377 24.6665 12.333 24.6665H26.208C26.7923 24.6665 27.3257 24.3366 27.5878 23.814L32.6383 13.7115C33.1208 12.7479 33.0684 11.6271 32.5026 10.7114ZM11.5625 27.7499C10.286 27.7499 9.25 28.7844 9.25 30.0624C9.25 31.3405 10.286 32.3749 11.5625 32.3749C12.839 32.3749 13.875 31.3405 13.875 30.0624C13.875 28.7844 12.839 27.7499 11.5625 27.7499ZM24.6666 30.0624C24.6666 28.7844 25.7026 27.7499 26.9791 27.7499C28.2556 27.7499 29.2916 28.7844 29.2916 30.0624C29.2916 31.3405 28.2556 32.3749 26.9791 32.3749C25.7026 32.3749 24.6666 31.3405 24.6666 30.0624Z" fill="white"/>
</mask>
<g mask="url(#mask0)">
<path d="M0 0H37V37H0V0Z" fill="#FF5D53"/>
</g>
</svg>
