<svg width="17" height="17" viewBox="0 0 17 17" fill="none" xmlns="http://www.w3.org/2000/svg">
<path fill-rule="evenodd" clip-rule="evenodd" d="M4.67508 2.83329C3.65933 2.83329 2.83341 3.65921 2.83341 4.67496C2.83341 9.90812 7.09121 14.1666 12.3251 14.1666C13.3401 14.1666 14.1667 13.3407 14.1667 12.325C14.1667 12.2463 14.1618 12.1691 14.1519 12.0926L10.8794 11.3418C10.8142 11.4665 10.7427 11.6018 10.6775 11.7278C10.3545 12.3441 10.1207 12.7917 9.52433 12.5516C7.18258 11.73 5.27079 9.81746 4.4385 7.44738C4.18562 6.89133 4.66729 6.63917 5.27787 6.32042C5.40183 6.25525 5.53571 6.18513 5.65825 6.12138L4.90741 2.84817C4.82879 2.83825 4.75229 2.83329 4.67508 2.83329ZM12.3251 15.5833C6.30992 15.5833 1.41675 10.6901 1.41675 4.67496C1.41675 2.87792 2.87804 1.41663 4.67508 1.41663C4.85925 1.41663 5.04129 1.43221 5.21766 1.46267C5.38979 1.49029 5.56262 1.53421 5.73121 1.59229C5.96141 1.67233 6.13496 1.86571 6.1895 2.10371L7.15921 6.32821C7.21304 6.56054 7.14575 6.80421 6.98 6.97704C6.88367 7.07763 6.88154 7.07975 6.00321 7.53946C6.71437 9.07938 7.95042 10.3112 9.45917 10.9983C9.91958 10.1192 9.92241 10.1164 10.023 10.02C10.1958 9.85429 10.4409 9.78983 10.6718 9.84083L14.897 10.8105C15.1343 10.8651 15.3277 11.0379 15.407 11.2681C15.4651 11.4353 15.509 11.6081 15.5381 11.7859C15.5678 11.9609 15.5834 12.1422 15.5834 12.325C15.5834 14.122 14.1214 15.5833 12.3251 15.5833Z" fill="black"/>
<mask id="mask0" style="mask-type:alpha" maskUnits="userSpaceOnUse" x="1" y="1" width="15" height="15">
<path fill-rule="evenodd" clip-rule="evenodd" d="M4.67508 2.83329C3.65933 2.83329 2.83341 3.65921 2.83341 4.67496C2.83341 9.90812 7.09121 14.1666 12.3251 14.1666C13.3401 14.1666 14.1667 13.3407 14.1667 12.325C14.1667 12.2463 14.1618 12.1691 14.1519 12.0926L10.8794 11.3418C10.8142 11.4665 10.7427 11.6018 10.6775 11.7278C10.3545 12.3441 10.1207 12.7917 9.52433 12.5516C7.18258 11.73 5.27079 9.81746 4.4385 7.44738C4.18562 6.89133 4.66729 6.63917 5.27787 6.32042C5.40183 6.25525 5.53571 6.18513 5.65825 6.12138L4.90741 2.84817C4.82879 2.83825 4.75229 2.83329 4.67508 2.83329ZM12.3251 15.5833C6.30992 15.5833 1.41675 10.6901 1.41675 4.67496C1.41675 2.87792 2.87804 1.41663 4.67508 1.41663C4.85925 1.41663 5.04129 1.43221 5.21766 1.46267C5.38979 1.49029 5.56262 1.53421 5.73121 1.59229C5.96141 1.67233 6.13496 1.86571 6.1895 2.10371L7.15921 6.32821C7.21304 6.56054 7.14575 6.80421 6.98 6.97704C6.88367 7.07763 6.88154 7.07975 6.00321 7.53946C6.71437 9.07938 7.95042 10.3112 9.45917 10.9983C9.91958 10.1192 9.92241 10.1164 10.023 10.02C10.1958 9.85429 10.4409 9.78983 10.6718 9.84083L14.897 10.8105C15.1343 10.8651 15.3277 11.0379 15.407 11.2681C15.4651 11.4353 15.509 11.6081 15.5381 11.7859C15.5678 11.9609 15.5834 12.1422 15.5834 12.325C15.5834 14.122 14.1214 15.5833 12.3251 15.5833Z" fill="white"/>
</mask>
<g mask="url(#mask0)">
<rect width="17" height="17" fill="#FF5D53"/>
</g>
</svg>
